<?xml version="1.0" encoding="UTF-8"?>
<!DOCTYPE svg PUBLIC "-//W3C//DTD SVG 1.1//EN" "http://www.w3.org/Graphics/SVG/1.1/DTD/svg11.dtd">
<svg xmlns="http://www.w3.org/2000/svg" version="1.1" viewBox="0 0 45 45" stroke="none">
	<rect width="100%" height="100%" fill="#FFFFFF"/>
	<path d="M4,4h1v1h-1z M5,4h1v1h-1z M6,4h1v1h-1z M7,4h1v1h-1z M8,4h1v1h-1z M9,4h1v1h-1z M10,4h1v1h-1z M12,4h1v1h-1z M14,4h1v1h-1z M20,4h1v1h-1z M21,4h1v1h-1z M22,4h1v1h-1z M23,4h1v1h-1z M25,4h1v1h-1z M26,4h1v1h-1z M27,4h1v1h-1z M28,4h1v1h-1z M29,4h1v1h-1z M34,4h1v1h-1z M35,4h1v1h-1z M36,4h1v1h-1z M37,4h1v1h-1z M38,4h1v1h-1z M39,4h1v1h-1z M40,4h1v1h-1z M4,5h1v1h-1z M10,5h1v1h-1z M12,5h1v1h-1z M15,5h1v1h-1z M16,5h1v1h-1z M18,5h1v1h-1z M20,5h1v1h-1z M24,5h1v1h-1z M30,5h1v1h-1z M32,5h1v1h-1z M34,5h1v1h-1z M40,5h1v1h-1z M4,6h1v1h-1z M6,6h1v1h-1z M7,6h1v1h-1z M8,6h1v1h-1z M10,6h1v1h-1z M12,6h1v1h-1z M13,6h1v1h-1z M14,6h1v1h-1z M17,6h1v1h-1z M19,6h1v1h-1z M24,6h1v1h-1z M25,6h1v1h-1z M27,6h1v1h-1z M29,6h1v1h-1z M30,6h1v1h-1z M31,6h1v1h-1z M32,6h1v1h-1z M34,6h1v1h-1z M36,6h1v1h-1z M37,6h1v1h-1z M38,6h1v1h-1z M40,6h1v1h-1z M4,7h1v1h-1z M6,7h1v1h-1z M7,7h1v1h-1z M8,7h1v1h-1z M10,7h1v1h-1z M13,7h1v1h-1z M15,7h1v1h-1z M17,7h1v1h-1z M19,7h1v1h-1z M20,7h1v1h-1z M21,7h1v1h-1z M22,7h1v1h-1z M23,7h1v1h-1z M24,7h1v1h-1z M25,7h1v1h-1z M27,7h1v1h-1z M28,7h1v1h-1z M29,7h1v1h-1z M31,7h1v1h-1z M32,7h1v1h-1z M34,7h1v1h-1z M36,7h1v1h-1z M37,7h1v1h-1z M38,7h1v1h-1z M40,7h1v1h-1z M4,8h1v1h-1z M6,8h1v1h-1z M7,8h1v1h-1z M8,8h1v1h-1z M10,8h1v1h-1z M12,8h1v1h-1z M14,8h1v1h-1z M16,8h1v1h-1z M20,8h1v1h-1z M21,8h1v1h-1z M22,8h1v1h-1z M23,8h1v1h-1z M26,8h1v1h-1z M30,8h1v1h-1z M32,8h1v1h-1z M34,8h1v1h-1z M36,8h1v1h-1z M37,8h1v1h-1z M38,8h1v1h-1z M40,8h1v1h-1z M4,9h1v1h-1z M10,9h1v1h-1z M14,9h1v1h-1z M15,9h1v1h-1z M17,9h1v1h-1z M18,9h1v1h-1z M19,9h1v1h-1z M20,9h1v1h-1z M21,9h1v1h-1z M22,9h1v1h-1z M24,9h1v1h-1z M25,9h1v1h-1z M27,9h1v1h-1z M29,9h1v1h-1z M32,9h1v1h-1z M34,9h1v1h-1z M40,9h1v1h-1z M4,10h1v1h-1z M5,10h1v1h-1z M6,10h1v1h-1z M7,10h1v1h-1z M8,10h1v1h-1z M9,10h1v1h-1z M10,10h1v1h-1z M12,10h1v1h-1z M14,10h1v1h-1z M16,10h1v1h-1z M18,10h1v1h-1z M20,10h1v1h-1z M22,10h1v1h-1z M24,10h1v1h-1z M26,10h1v1h-1z M28,10h1v1h-1z M30,10h1v1h-1z M32,10h1v1h-1z M34,10h1v1h-1z M35,10h1v1h-1z M36,10h1v1h-1z M37,10h1v1h-1z M38,10h1v1h-1z M39,10h1v1h-1z M40,10h1v1h-1z M14,11h1v1h-1z M15,11h1v1h-1z M16,11h1v1h-1z M19,11h1v1h-1z M20,11h1v1h-1z M24,11h1v1h-1z M25,11h1v1h-1z M28,11h1v1h-1z M29,11h1v1h-1z M31,11h1v1h-1z M32,11h1v1h-1z M4,12h1v1h-1z M7,12h1v1h-1z M8,12h1v1h-1z M9,12h1v1h-1z M10,12h1v1h-1z M11,12h1v1h-1z M12,12h1v1h-1z M15,12h1v1h-1z M18,12h1v1h-1z M19,12h1v1h-1z M20,12h1v1h-1z M22,12h1v1h-1z M24,12h1v1h-1z M25,12h1v1h-1z M27,12h1v1h-1z M28,12h1v1h-1z M30,12h1v1h-1z M32,12h1v1h-1z M33,12h1v1h-1z M36,12h1v1h-1z M38,12h1v1h-1z M39,12h1v1h-1z M40,12h1v1h-1z M5,13h1v1h-1z M11,13h1v1h-1z M14,13h1v1h-1z M16,13h1v1h-1z M21,13h1v1h-1z M24,13h1v1h-1z M26,13h1v1h-1z M27,13h1v1h-1z M29,13h1v1h-1z M31,13h1v1h-1z M34,13h1v1h-1z M35,13h1v1h-1z M36,13h1v1h-1z M37,13h1v1h-1z M38,13h1v1h-1z M39,13h1v1h-1z M4,14h1v1h-1z M9,14h1v1h-1z M10,14h1v1h-1z M11,14h1v1h-1z M14,14h1v1h-1z M15,14h1v1h-1z M17,14h1v1h-1z M18,14h1v1h-1z M21,14h1v1h-1z M27,14h1v1h-1z M29,14h1v1h-1z M31,14h1v1h-1z M32,14h1v1h-1z M34,14h1v1h-1z M35,14h1v1h-1z M36,14h1v1h-1z M37,14h1v1h-1z M40,14h1v1h-1z M4,15h1v1h-1z M5,15h1v1h-1z M6,15h1v1h-1z M9,15h1v1h-1z M13,15h1v1h-1z M14,15h1v1h-1z M19,15h1v1h-1z M21,15h1v1h-1z M27,15h1v1h-1z M30,15h1v1h-1z M31,15h1v1h-1z M35,15h1v1h-1z M36,15h1v1h-1z M38,15h1v1h-1z M39,15h1v1h-1z M40,15h1v1h-1z M5,16h1v1h-1z M8,16h1v1h-1z M10,16h1v1h-1z M12,16h1v1h-1z M15,16h1v1h-1z M17,16h1v1h-1z M18,16h1v1h-1z M20,16h1v1h-1z M21,16h1v1h-1z M23,16h1v1h-1z M24,16h1v1h-1z M28,16h1v1h-1z M31,16h1v1h-1z M32,16h1v1h-1z M34,16h1v1h-1z M35,16h1v1h-1z M37,16h1v1h-1z M40,16h1v1h-1z M4,17h1v1h-1z M6,17h1v1h-1z M7,17h1v1h-1z M9,17h1v1h-1z M13,17h1v1h-1z M14,17h1v1h-1z M19,17h1v1h-1z M20,17h1v1h-1z M21,17h1v1h-1z M22,17h1v1h-1z M27,17h1v1h-1z M29,17h1v1h-1z M30,17h1v1h-1z M31,17h1v1h-1z M36,17h1v1h-1z M37,17h1v1h-1z M39,17h1v1h-1z M5,18h1v1h-1z M6,18h1v1h-1z M7,18h1v1h-1z M9,18h1v1h-1z M10,18h1v1h-1z M12,18h1v1h-1z M13,18h1v1h-1z M15,18h1v1h-1z M17,18h1v1h-1z M19,18h1v1h-1z M21,18h1v1h-1z M23,18h1v1h-1z M24,18h1v1h-1z M25,18h1v1h-1z M26,18h1v1h-1z M28,18h1v1h-1z M29,18h1v1h-1z M30,18h1v1h-1z M31,18h1v1h-1z M32,18h1v1h-1z M34,18h1v1h-1z M36,18h1v1h-1z M37,18h1v1h-1z M38,18h1v1h-1z M39,18h1v1h-1z M40,18h1v1h-1z M4,19h1v1h-1z M8,19h1v1h-1z M9,19h1v1h-1z M12,19h1v1h-1z M16,19h1v1h-1z M18,19h1v1h-1z M19,19h1v1h-1z M20,19h1v1h-1z M21,19h1v1h-1z M22,19h1v1h-1z M24,19h1v1h-1z M28,19h1v1h-1z M30,19h1v1h-1z M31,19h1v1h-1z M32,19h1v1h-1z M33,19h1v1h-1z M34,19h1v1h-1z M35,19h1v1h-1z M37,19h1v1h-1z M38,19h1v1h-1z M4,20h1v1h-1z M5,20h1v1h-1z M6,20h1v1h-1z M7,20h1v1h-1z M10,20h1v1h-1z M13,20h1v1h-1z M14,20h1v1h-1z M15,20h1v1h-1z M16,20h1v1h-1z M18,20h1v1h-1z M19,20h1v1h-1z M20,20h1v1h-1z M21,20h1v1h-1z M24,20h1v1h-1z M25,20h1v1h-1z M28,20h1v1h-1z M29,20h1v1h-1z M31,20h1v1h-1z M34,20h1v1h-1z M38,20h1v1h-1z M39,20h1v1h-1z M40,20h1v1h-1z M4,21h1v1h-1z M5,21h1v1h-1z M6,21h1v1h-1z M9,21h1v1h-1z M12,21h1v1h-1z M13,21h1v1h-1z M14,21h1v1h-1z M16,21h1v1h-1z M17,21h1v1h-1z M20,21h1v1h-1z M21,21h1v1h-1z M22,21h1v1h-1z M24,21h1v1h-1z M25,21h1v1h-1z M29,21h1v1h-1z M31,21h1v1h-1z M33,21h1v1h-1z M34,21h1v1h-1z M37,21h1v1h-1z M8,22h1v1h-1z M9,22h1v1h-1z M10,22h1v1h-1z M12,22h1v1h-1z M13,22h1v1h-1z M16,22h1v1h-1z M18,22h1v1h-1z M19,22h1v1h-1z M21,22h1v1h-1z M24,22h1v1h-1z M25,22h1v1h-1z M26,22h1v1h-1z M27,22h1v1h-1z M29,22h1v1h-1z M31,22h1v1h-1z M33,22h1v1h-1z M36,22h1v1h-1z M38,22h1v1h-1z M40,22h1v1h-1z M4,23h1v1h-1z M8,23h1v1h-1z M11,23h1v1h-1z M12,23h1v1h-1z M14,23h1v1h-1z M22,23h1v1h-1z M29,23h1v1h-1z M31,23h1v1h-1z M32,23h1v1h-1z M33,23h1v1h-1z M34,23h1v1h-1z M36,23h1v1h-1z M40,23h1v1h-1z M6,24h1v1h-1z M7,24h1v1h-1z M8,24h1v1h-1z M9,24h1v1h-1z M10,24h1v1h-1z M11,24h1v1h-1z M13,24h1v1h-1z M14,24h1v1h-1z M19,24h1v1h-1z M21,24h1v1h-1z M26,24h1v1h-1z M28,24h1v1h-1z M32,24h1v1h-1z M33,24h1v1h-1z M34,24h1v1h-1z M35,24h1v1h-1z M36,24h1v1h-1z M4,25h1v1h-1z M5,25h1v1h-1z M13,25h1v1h-1z M14,25h1v1h-1z M16,25h1v1h-1z M17,25h1v1h-1z M18,25h1v1h-1z M22,25h1v1h-1z M23,25h1v1h-1z M25,25h1v1h-1z M27,25h1v1h-1z M29,25h1v1h-1z M30,25h1v1h-1z M31,25h1v1h-1z M33,25h1v1h-1z M36,25h1v1h-1z M38,25h1v1h-1z M39,25h1v1h-1z M6,26h1v1h-1z M7,26h1v1h-1z M8,26h1v1h-1z M9,26h1v1h-1z M10,26h1v1h-1z M17,26h1v1h-1z M18,26h1v1h-1z M19,26h1v1h-1z M20,26h1v1h-1z M21,26h1v1h-1z M22,26h1v1h-1z M26,26h1v1h-1z M27,26h1v1h-1z M28,26h1v1h-1z M30,26h1v1h-1z M31,26h1v1h-1z M32,26h1v1h-1z M33,26h1v1h-1z M35,26h1v1h-1z M37,26h1v1h-1z M40,26h1v1h-1z M5,27h1v1h-1z M6,27h1v1h-1z M7,27h1v1h-1z M14,27h1v1h-1z M15,27h1v1h-1z M16,27h1v1h-1z M18,27h1v1h-1z M21,27h1v1h-1z M24,27h1v1h-1z M25,27h1v1h-1z M26,27h1v1h-1z M27,27h1v1h-1z M30,27h1v1h-1z M34,27h1v1h-1z M35,27h1v1h-1z M36,27h1v1h-1z M37,27h1v1h-1z M38,27h1v1h-1z M40,27h1v1h-1z M5,28h1v1h-1z M10,28h1v1h-1z M11,28h1v1h-1z M13,28h1v1h-1z M14,28h1v1h-1z M17,28h1v1h-1z M20,28h1v1h-1z M21,28h1v1h-1z M22,28h1v1h-1z M25,28h1v1h-1z M27,28h1v1h-1z M28,28h1v1h-1z M31,28h1v1h-1z M32,28h1v1h-1z M33,28h1v1h-1z M34,28h1v1h-1z M39,28h1v1h-1z M40,28h1v1h-1z M4,29h1v1h-1z M5,29h1v1h-1z M6,29h1v1h-1z M9,29h1v1h-1z M11,29h1v1h-1z M12,29h1v1h-1z M17,29h1v1h-1z M20,29h1v1h-1z M23,29h1v1h-1z M24,29h1v1h-1z M25,29h1v1h-1z M27,29h1v1h-1z M30,29h1v1h-1z M31,29h1v1h-1z M32,29h1v1h-1z M35,29h1v1h-1z M36,29h1v1h-1z M4,30h1v1h-1z M5,30h1v1h-1z M6,30h1v1h-1z M8,30h1v1h-1z M9,30h1v1h-1z M10,30h1v1h-1z M11,30h1v1h-1z M12,30h1v1h-1z M15,30h1v1h-1z M18,30h1v1h-1z M20,30h1v1h-1z M22,30h1v1h-1z M23,30h1v1h-1z M24,30h1v1h-1z M25,30h1v1h-1z M26,30h1v1h-1z M28,30h1v1h-1z M30,30h1v1h-1z M31,30h1v1h-1z M32,30h1v1h-1z M33,30h1v1h-1z M34,30h1v1h-1z M35,30h1v1h-1z M36,30h1v1h-1z M37,30h1v1h-1z M39,30h1v1h-1z M40,30h1v1h-1z M4,31h1v1h-1z M7,31h1v1h-1z M12,31h1v1h-1z M13,31h1v1h-1z M14,31h1v1h-1z M15,31h1v1h-1z M19,31h1v1h-1z M24,31h1v1h-1z M34,31h1v1h-1z M36,31h1v1h-1z M38,31h1v1h-1z M39,31h1v1h-1z M4,32h1v1h-1z M6,32h1v1h-1z M8,32h1v1h-1z M9,32h1v1h-1z M10,32h1v1h-1z M11,32h1v1h-1z M12,32h1v1h-1z M14,32h1v1h-1z M15,32h1v1h-1z M16,32h1v1h-1z M17,32h1v1h-1z M24,32h1v1h-1z M27,32h1v1h-1z M29,32h1v1h-1z M32,32h1v1h-1z M33,32h1v1h-1z M34,32h1v1h-1z M35,32h1v1h-1z M36,32h1v1h-1z M38,32h1v1h-1z M39,32h1v1h-1z M40,32h1v1h-1z M12,33h1v1h-1z M13,33h1v1h-1z M14,33h1v1h-1z M16,33h1v1h-1z M18,33h1v1h-1z M19,33h1v1h-1z M20,33h1v1h-1z M24,33h1v1h-1z M31,33h1v1h-1z M32,33h1v1h-1z M36,33h1v1h-1z M38,33h1v1h-1z M39,33h1v1h-1z M4,34h1v1h-1z M5,34h1v1h-1z M6,34h1v1h-1z M7,34h1v1h-1z M8,34h1v1h-1z M9,34h1v1h-1z M10,34h1v1h-1z M12,34h1v1h-1z M15,34h1v1h-1z M16,34h1v1h-1z M18,34h1v1h-1z M19,34h1v1h-1z M23,34h1v1h-1z M25,34h1v1h-1z M26,34h1v1h-1z M27,34h1v1h-1z M30,34h1v1h-1z M32,34h1v1h-1z M34,34h1v1h-1z M36,34h1v1h-1z M40,34h1v1h-1z M4,35h1v1h-1z M10,35h1v1h-1z M12,35h1v1h-1z M14,35h1v1h-1z M16,35h1v1h-1z M17,35h1v1h-1z M21,35h1v1h-1z M22,35h1v1h-1z M26,35h1v1h-1z M28,35h1v1h-1z M29,35h1v1h-1z M31,35h1v1h-1z M32,35h1v1h-1z M36,35h1v1h-1z M39,35h1v1h-1z M40,35h1v1h-1z M4,36h1v1h-1z M6,36h1v1h-1z M7,36h1v1h-1z M8,36h1v1h-1z M10,36h1v1h-1z M12,36h1v1h-1z M14,36h1v1h-1z M16,36h1v1h-1z M17,36h1v1h-1z M18,36h1v1h-1z M19,36h1v1h-1z M25,36h1v1h-1z M26,36h1v1h-1z M28,36h1v1h-1z M31,36h1v1h-1z M32,36h1v1h-1z M33,36h1v1h-1z M34,36h1v1h-1z M35,36h1v1h-1z M36,36h1v1h-1z M39,36h1v1h-1z M4,37h1v1h-1z M6,37h1v1h-1z M7,37h1v1h-1z M8,37h1v1h-1z M10,37h1v1h-1z M12,37h1v1h-1z M16,37h1v1h-1z M17,37h1v1h-1z M18,37h1v1h-1z M20,37h1v1h-1z M22,37h1v1h-1z M25,37h1v1h-1z M27,37h1v1h-1z M29,37h1v1h-1z M30,37h1v1h-1z M32,37h1v1h-1z M33,37h1v1h-1z M34,37h1v1h-1z M38,37h1v1h-1z M40,37h1v1h-1z M4,38h1v1h-1z M6,38h1v1h-1z M7,38h1v1h-1z M8,38h1v1h-1z M10,38h1v1h-1z M13,38h1v1h-1z M15,38h1v1h-1z M19,38h1v1h-1z M20,38h1v1h-1z M21,38h1v1h-1z M23,38h1v1h-1z M24,38h1v1h-1z M25,38h1v1h-1z M27,38h1v1h-1z M31,38h1v1h-1z M32,38h1v1h-1z M33,38h1v1h-1z M36,38h1v1h-1z M37,38h1v1h-1z M40,38h1v1h-1z M4,39h1v1h-1z M10,39h1v1h-1z M16,39h1v1h-1z M17,39h1v1h-1z M20,39h1v1h-1z M21,39h1v1h-1z M22,39h1v1h-1z M23,39h1v1h-1z M24,39h1v1h-1z M26,39h1v1h-1z M27,39h1v1h-1z M30,39h1v1h-1z M36,39h1v1h-1z M38,39h1v1h-1z M39,39h1v1h-1z M40,39h1v1h-1z M4,40h1v1h-1z M5,40h1v1h-1z M6,40h1v1h-1z M7,40h1v1h-1z M8,40h1v1h-1z M9,40h1v1h-1z M10,40h1v1h-1z M12,40h1v1h-1z M14,40h1v1h-1z M15,40h1v1h-1z M16,40h1v1h-1z M17,40h1v1h-1z M18,40h1v1h-1z M19,40h1v1h-1z M20,40h1v1h-1z M24,40h1v1h-1z M26,40h1v1h-1z M28,40h1v1h-1z M32,40h1v1h-1z M34,40h1v1h-1z M35,40h1v1h-1z M40,40h1v1h-1z" fill="#000000"/>
</svg>
